# Blender v2.90.0 OBJ File: 'color-cube.blend'
# www.blender.org
mtllib color-cube.mtl
o Cube
v -1.000000 1.000000 -1.000000
v 1.000000 1.000000 -1.000000
v 1.000000 -1.000000 -1.000000
v 1.000000 -1.000000 1.000000
v -1.000000 -1.000000 -1.000000
v 1.000000 -1.000000 -1.000000
v -1.000000 -1.000000 1.000000
v 1.000000 -1.000000 -1.000000
v -1.000000 1.000000 -1.000000
v 1.000000 -1.000000 1.000000
v -1.000000 -1.000000 -1.000000
v -1.000000 -1.000000 1.000000
v -1.000000 -1.000000 1.000000
v 1.000000 1.000000 1.000000
v 1.000000 1.000000 -1.000000
v -1.000000 1.000000 -1.000000
v 1.000000 -1.000000 1.000000
v 1.000000 1.000000 1.000000
v 1.000000 1.000000 1.000000
v -1.000000 1.000000 1.000000
v -1.000000 1.000000 1.000000
v -1.000000 -1.000000 -1.000000
v -1.000000 1.000000 1.000000
v 1.000000 1.000000 -1.000000
vt 0.000244 0.997313
vt 0.166422 0.997313
vt 0.166422 0.000244
vt 0.000244 0.000244
vt 0.166911 0.997313
vt 0.333089 0.997313
vt 0.333089 0.000244
vt 0.166911 0.000244
vt 0.833089 0.000244
vt 0.833089 0.997313
vt 0.666911 0.997313
vt 0.666911 0.000244
vt 0.666422 0.000244
vt 0.666422 0.997314
vt 0.500244 0.997313
vt 0.500244 0.000244
vt 0.333578 0.997313
vt 0.499756 0.997313
vt 0.499756 0.000244
vt 0.333578 0.000244
vt 0.999756 0.000244
vt 0.999756 0.997313
vt 0.833578 0.997313
vt 0.833578 0.000244
vn 0.0000 -1.0000 0.0000
vn -0.0000 0.0000 -1.0000
vn 1.0000 -0.0000 0.0000
vn 0.0000 1.0000 0.0000
vn -1.0000 0.0000 0.0000
vn 0.0000 0.0000 1.0000
usemtl Material
s off
f 16/1/1 24/2/1 18/3/1 20/4/1
f 21/5/2 19/6/2 17/7/2 12/8/2
f 11/9/3 9/10/3 23/11/3 7/12/3
f 10/13/4 8/14/4 22/15/4 13/16/4
f 14/17/5 15/18/5 3/19/5 4/20/5
f 6/21/6 2/22/6 1/23/6 5/24/6
